# xmcd
#
# Track frame offsets:
#	150
#	31061
#	51316
#	68185
#	86804
#	104059
#	123401
#	137853
#	154283
#	170421
#	191426
#
# Disc length: 2734 seconds
#
# Revision: 1
# Processed by: cddbd v1.5.2PL0 Copyright (c) Steve Scherf et al.
# Submitted via: audiograbber 1.83.01
#
DISCID=9d0aac0b
DTITLE=The Black Keys - Turn Blue
DYEAR=2014
DGENRE=Alternative and Indie
TTITLE0=Weight Of Love
TTITLE1=In Time
TTITLE2=Turn Blue
TTITLE3=Fever
TTITLE4=Year In Review
TTITLE5=Bullet In The Brain
TTITLE6=It's Up To You Now
TTITLE7=Waiting On Words
TTITLE8=10 Lovers
TTITLE9=In Our Time
TTITLE10=Gotta Get Away
EXTD=
EXTT0=
EXTT1=
EXTT2=
EXTT3=
EXTT4=
EXTT5=
EXTT6=
EXTT7=
EXTT8=
EXTT9=
EXTT10=
PLAYORDER=
